<svg width="41" height="51" viewBox="0 0 41 51" fill="none" xmlns="http://www.w3.org/2000/svg">
<path d="M19.9421 49.6853C19.9421 49.7229 20.0548 49.6102 20.205 49.46C20.0173 49.5726 19.9421 49.6102 19.9421 49.6102V49.6853Z" fill="white"/>
<path d="M21.3692 48.4082C21.2941 48.1829 20.5805 49.0092 20.205 49.4224C20.3176 49.3473 20.5054 49.2721 20.6932 49.1595C21.0687 48.859 21.4067 48.5209 21.3692 48.4082Z" fill="white"/>
<path d="M34.326 50.399C34.8893 49.7605 35.4151 49.0843 35.9409 48.4082C36.1662 48.1077 35.9784 47.657 35.6029 47.6194C33.2744 47.3565 29.9695 47.1311 27.228 47.3189C24.0733 47.5443 21.7824 48.5585 20.6557 49.1219C20.2801 49.4224 19.9421 49.7229 19.9421 49.7605C20.1675 50.8497 20.7684 50.2488 20.8059 50.2488C20.9561 50.2488 20.7308 50.9249 20.881 50.9249C23.923 50.9624 29.594 51 33.0491 51C33.4998 51 33.9504 50.8122 34.2509 50.4366C34.2884 50.4741 34.2884 50.4366 34.326 50.399Z" fill="white"/>
<path d="M34.326 50.399C34.8893 49.7605 35.4151 49.0843 35.9409 48.4082C36.1662 48.1077 35.9784 47.657 35.6029 47.6194C33.2744 47.3565 29.9695 47.1311 27.228 47.3189C24.0733 47.5443 21.7824 48.5585 20.6557 49.1219C20.2801 49.4224 19.9421 49.7229 19.9421 49.7605C20.1675 50.8497 20.7684 50.2488 20.8059 50.2488C20.9561 50.2488 20.7308 50.9249 20.881 50.9249C23.923 50.9624 29.594 51 33.0491 51C33.4998 51 33.9504 50.8122 34.2509 50.4366C34.2884 50.4741 34.2884 50.4366 34.326 50.399Z" fill="white"/>
<path d="M35.3776 41.8725C35.3776 41.8725 36.5418 40.4451 35.9033 40.0695C35.6029 39.8817 29.1433 39.8817 24.5615 40.9334C20.1299 41.9476 17.6512 44.2389 17.6512 44.2389L17.6888 44.314C17.7264 44.3891 17.8015 44.2764 17.9517 44.6145C18.0644 44.8399 18.2521 45.2906 18.3272 45.3657C18.3648 45.4409 18.515 45.516 18.5526 45.516C22.8339 44.9525 33.6875 43.3374 33.6875 43.3374L35.3776 41.8725Z" fill="white"/>
<path d="M35.3776 41.8725C35.3776 41.8725 36.5418 40.4451 35.9033 40.0695C35.6029 39.8817 29.1433 39.8817 24.5615 40.9334C20.1299 41.9476 17.6512 44.2389 17.6512 44.2389L17.6888 44.314C17.7264 44.3891 17.8015 44.2764 17.9517 44.6145C18.0644 44.8399 18.2521 45.2906 18.3272 45.3657C18.3648 45.4409 18.515 45.516 18.5526 45.516C22.8339 44.9525 33.6875 43.3374 33.6875 43.3374L35.3776 41.8725Z" fill="white"/>
<path d="M35.3776 25.6458C35.4902 27.4863 33.988 33.684 31.5844 37.1021C31.2464 37.3651 30.946 37.628 30.608 37.8534C30.4202 38.0036 30.2324 38.1539 30.0071 38.2666C29.7066 38.4919 29.4062 38.6797 29.0682 38.9051C28.9931 38.9802 28.8804 39.0178 28.8053 39.0929C28.8053 39.0929 28.8053 39.0929 28.7677 39.0929C28.7302 39.1305 28.6926 39.168 28.6175 39.168C27.6035 39.8066 26.5895 40.37 25.6131 40.8959C25.1624 41.1588 24.6742 41.3842 24.2235 41.6096C24.0733 41.6847 23.9231 41.7598 23.7728 41.8349C23.6977 41.8725 23.5851 41.91 23.5099 41.9476C23.5099 41.9476 23.5099 41.9476 23.4724 41.9476C23.3973 41.9852 23.2846 42.0227 23.2095 42.0603C23.2095 42.0603 23.2095 42.0603 23.1719 42.0603C23.0968 42.0979 22.9842 42.1354 22.909 42.173C22.7588 42.2481 22.6462 42.2857 22.4959 42.3608C22.0828 42.5486 21.7073 42.6988 21.3317 42.8491C20.5806 43.1496 19.9046 43.4125 19.3413 43.6003C17.4635 44.3516 18.3648 45.4033 18.5526 45.4409C18.1395 45.4784 17.6512 44.2389 17.5386 43.9384C17.501 43.9008 17.501 43.8633 17.4635 43.7881V43.7506C17.4635 43.7506 17.4635 43.7506 17.4635 43.713C17.4259 43.6379 17.4259 43.6003 17.3884 43.5252C17.3884 43.5252 17.3884 43.5252 17.3884 43.4876C17.3884 43.4876 17.3884 43.4876 17.3884 43.4501C17.3884 43.4125 17.3508 43.375 17.3508 43.3374V43.2998V43.2623C17.3508 43.2247 17.3132 43.1871 17.2757 43.112C17.2757 43.112 17.2757 43.112 17.2757 43.0745C17.2381 43.0369 17.2381 42.9618 17.2006 42.9242C17.2006 42.9242 17.2006 42.9242 17.2006 42.8867C17.2006 42.8491 17.163 42.8115 17.163 42.774V42.7364V42.6988C17.1255 42.5862 17.0504 42.4359 16.9752 42.2857C16.9752 42.2481 16.9752 42.2481 16.9377 42.2105C16.9377 42.2105 16.9377 42.2105 16.9377 42.173C16.9001 42.0979 16.8626 42.0227 16.8626 41.9476C16.825 41.8725 16.7875 41.7598 16.7499 41.6471C16.7499 41.6471 16.7499 41.6471 16.7499 41.6096V41.572C16.6748 41.4217 16.5997 41.2339 16.5246 41.0461V41.0086V40.971C16.487 40.8583 16.4495 40.7832 16.4119 40.6705C16.4119 40.6329 16.3743 40.6329 16.3743 40.5954C16.3743 40.5578 16.3743 40.5578 16.3368 40.5203C16.3368 40.5203 16.3368 40.5203 16.3368 40.4827C16.3368 40.4451 16.3368 40.4451 16.3368 40.4076C16.3368 40.4076 16.3368 40.4076 16.3368 40.37C16.3368 40.3325 16.3368 40.3325 16.3368 40.2949C16.3368 40.2573 16.3743 40.2198 16.4119 40.1822C16.4119 40.1822 16.4119 40.1822 16.4495 40.1446C16.4495 40.1446 16.487 40.1446 16.487 40.1071C16.487 40.1071 16.487 40.1071 16.5246 40.1071C16.5246 40.1071 16.5621 40.1071 16.5997 40.0695C16.825 39.9944 17.0504 39.9193 17.3132 39.8441C17.3884 39.8066 17.4635 39.8066 17.501 39.769C17.6888 39.6939 17.8766 39.6563 18.0268 39.5812C18.1019 39.5437 18.1395 39.5437 18.2146 39.5061C18.4399 39.431 18.6652 39.3558 18.9281 39.2807C18.9657 39.2807 19.0033 39.2432 19.0408 39.2432C19.2286 39.168 19.4164 39.0929 19.6041 39.0178C19.6793 38.9802 19.7544 38.9802 19.7919 38.9427C19.9797 38.8675 20.1675 38.7924 20.3553 38.7173C20.3928 38.7173 20.4304 38.6797 20.4679 38.6797C20.6933 38.6046 20.9186 38.4919 21.1439 38.3792C21.219 38.3417 21.2566 38.3417 21.3317 38.3041C21.5195 38.229 21.7073 38.1539 21.8575 38.0787C21.9326 38.0412 21.9702 38.0036 22.0453 38.0036C22.2706 37.8909 22.4959 37.7783 22.7213 37.6656C23.0217 37.5153 23.3222 37.3651 23.6226 37.2148C23.8479 37.1021 24.1108 36.9519 24.3362 36.8392C24.4113 36.8016 24.4864 36.7641 24.5615 36.7265C24.7493 36.6138 24.9746 36.5012 25.1624 36.3885C25.7633 36.0128 26.3642 35.6372 26.9651 35.2616C27.0402 35.1865 27.1153 35.1489 27.228 35.0738C27.3031 34.9987 27.4157 34.9611 27.4908 34.886C27.6786 34.7358 27.8664 34.6231 28.0542 34.4728C28.1293 34.4353 28.1669 34.3977 28.242 34.3226C28.3922 34.2099 28.5049 34.1348 28.6175 34.0221C28.6926 33.9845 28.7302 33.9094 28.8053 33.8718C28.918 33.7591 29.0682 33.684 29.1809 33.5713C29.256 33.5338 29.2935 33.4586 29.3311 33.4211C29.5189 33.2708 29.6691 33.1206 29.8569 32.9703C29.8944 32.9328 29.8944 32.9328 29.932 32.8952C30.0446 32.7825 30.1949 32.6699 30.3075 32.5572C30.4953 32.3694 30.6831 32.1815 30.8709 31.9937C30.9084 31.9562 30.9835 31.8811 31.0211 31.8435C31.3966 31.4679 31.7722 31.0547 32.1102 30.6791C32.1478 30.6415 32.1853 30.5664 32.2229 30.5288C32.2604 30.4537 32.3355 30.4161 32.3731 30.341C32.4858 30.1908 32.5984 30.0405 32.7487 29.8903L32.7862 29.8527C32.8989 29.7025 33.0115 29.5522 33.1242 29.402C33.1618 29.3269 33.2369 29.2517 33.2744 29.1766C33.3871 29.0264 33.4998 28.8761 33.5749 28.7259C33.6124 28.6883 33.65 28.6132 33.65 28.5756C33.7251 28.4254 33.8378 28.2751 33.9129 28.1624C33.9504 28.1249 33.988 28.0498 33.988 28.0122C34.0255 27.9746 34.2509 27.4863 34.3635 27.3361C34.3635 27.2985 34.4011 27.2985 34.4011 27.261C34.4011 27.6366 35.34 25.4204 35.3776 25.6458Z" fill="white"/>
<path d="M36.2037 40.4827C36.0535 39.9568 35.5277 40.032 35.5277 40.032C36.7295 40.1822 34.9643 41.0837 34.9643 41.0837C32.4481 42.3232 26.4392 45.1404 20.2049 47.0185C19.5665 47.2063 19.1534 47.7321 19.3036 48.1077C19.7167 49.197 20.0172 49.9483 20.2049 50.4366C20.2425 50.5493 20.3176 50.6244 20.3927 50.6995C20.6556 51 20.9561 50.9624 22.0452 50.9624C21.5569 50.9624 21.8198 50.7371 22.0827 50.6244C25.275 49.46 32.4857 46.7931 36.1661 44.8774C36.767 44.5769 37.105 44.0511 36.9924 43.6379L36.2037 40.4827Z" fill="white"/>
<path d="M40.0345 16.368C40.2223 17.4198 40.3725 18.4339 40.41 19.4857C40.41 19.4857 40.41 19.5232 40.41 19.5608C40.4852 21.5516 40.2598 23.5048 39.7716 25.3829C39.4336 26.6224 39.0205 27.7868 38.4947 28.9137C38.4571 28.9512 38.4571 29.0264 38.4196 29.0639C38.3445 29.2517 38.2318 29.4395 38.1191 29.6273C37.5182 30.7918 36.7671 31.9186 35.9409 32.9328C35.0396 34.0596 34.0256 35.0738 32.8613 36.0128C32.7487 36.1255 32.636 36.2382 32.4858 36.3133C32.4107 36.3509 32.3731 36.426 32.298 36.4636C32.1102 36.6138 31.9224 36.7641 31.7722 36.9143C31.6971 36.9519 31.6596 37.027 31.5844 37.0646C31.622 37.027 31.6596 36.9519 31.6971 36.8768C34.0256 33.346 34.2885 27.8995 34.326 27.5239V27.4863L34.3636 27.4112C34.4387 27.2234 34.5513 27.0731 34.6265 26.8853C34.6265 26.8853 34.6265 26.8853 34.6265 26.8478C34.7391 26.6224 34.8142 26.4346 34.8893 26.2092C34.8893 26.1717 34.8893 26.1717 34.9269 26.1341C35.002 25.9463 35.0771 25.7209 35.1522 25.4956C35.1522 25.458 35.1898 25.4204 35.1898 25.3829C35.2273 25.2326 35.2649 25.1199 35.34 24.9697C35.34 24.9321 35.3776 24.857 35.3776 24.8194C35.3776 24.7443 35.4151 24.7068 35.4151 24.6316C35.4151 24.5941 35.4527 24.5565 35.4527 24.519C35.4902 24.3687 35.5278 24.256 35.5653 24.1058C35.5653 24.0306 35.6029 23.9555 35.6029 23.8804C35.6405 23.7302 35.678 23.5423 35.7156 23.3921C35.7156 23.317 35.7531 23.2419 35.7531 23.1667C35.7531 23.0916 35.7907 23.054 35.7907 22.9789C35.7907 22.8662 35.8282 22.7911 35.8282 22.6784C35.8282 22.6033 35.8658 22.5282 35.8658 22.4531C35.9033 22.3028 35.9034 22.115 35.9409 21.9648C35.9409 21.8896 35.9409 21.8145 35.9785 21.7018C35.9785 21.5516 36.016 21.4013 36.016 21.2135C36.016 21.1384 36.016 21.0633 36.016 20.9881C36.016 20.9506 36.016 20.913 36.016 20.8755C36.016 20.7628 36.016 20.6501 36.016 20.4998C36.016 20.4247 36.016 20.3496 36.016 20.2745C36.016 20.1242 36.016 19.974 36.016 19.8613C36.016 19.8237 36.016 19.8237 36.016 19.7862C36.016 19.711 36.016 19.6359 36.016 19.5984C36.016 19.4481 36.016 19.2979 35.9785 19.1852C35.9785 19.1476 35.9785 19.1101 35.9785 19.0725C35.9034 17.7954 35.6405 16.4807 35.2273 15.2412C34.9269 14.3022 34.5513 13.4007 34.0631 12.5743C33.6876 11.8982 33.312 11.2597 32.8613 10.6587C32.0351 9.56937 31.0962 8.55521 30.0071 7.72885C29.9695 7.72885 29.9695 7.69129 29.932 7.69129C29.7442 7.54104 29.5564 7.42835 29.3687 7.27811C29.6315 7.42835 29.9695 7.61616 30.3451 7.84153C32.8989 9.344 37.2929 12.3114 39.5463 15.8046C39.8091 16.03 39.9218 16.1802 40.0345 16.368Z" fill="white"/>
<path d="M39.3959 13.9641C39.6588 14.7529 39.8466 15.5417 40.0344 16.3681C37.5933 12.1236 31.7721 8.59277 29.5188 7.31567C28.8428 6.82737 28.1668 6.41419 27.4532 6.03857C27.4157 6.03857 27.4157 6.00101 27.3781 6.00101C27.2279 5.92589 27.0777 5.85076 26.9274 5.77564C26.8148 5.70051 26.6645 5.66295 26.5519 5.58783C26.5143 5.58783 26.4768 5.55027 26.4392 5.55027C26.1012 5.40002 25.7632 5.28734 25.4252 5.13709C24.4112 4.79903 23.3596 4.5361 22.3081 4.38585C22.233 4.38585 22.1578 4.38585 22.1203 4.34829C20.3552 4.12292 18.5149 4.23561 16.6747 4.64879C16.4118 4.72391 16.2616 4.76147 16.2616 4.76147C18.9281 3.82243 22.8339 2.7707 28.5048 1.75653C29.0681 2.01946 29.6314 2.2824 30.1948 2.62045C30.2323 2.65801 30.2699 2.65801 30.345 2.69557C30.7581 2.92095 31.1712 3.18388 31.5843 3.44681C33.049 4.42342 34.401 5.62539 35.5652 7.01518C35.6028 7.05274 35.6028 7.05274 35.6404 7.0903C35.7155 7.16542 35.7906 7.24055 35.8281 7.31567L35.8657 7.35323L35.9032 7.39079L35.9784 7.50348C36.0159 7.54104 36.0535 7.61616 36.091 7.65373C36.1661 7.72885 36.2037 7.80397 36.2788 7.8791C36.3164 7.91666 36.3164 7.95422 36.3539 7.99178C36.3539 7.99178 36.3539 8.02934 36.3915 8.02934C36.3915 8.06691 36.429 8.06691 36.429 8.10447C36.5041 8.21715 36.6168 8.32984 36.6919 8.48009C36.6919 8.51765 36.7295 8.51765 36.7295 8.55521C36.7295 8.59277 36.767 8.59277 36.767 8.63033C36.767 8.66789 36.8046 8.66789 36.8046 8.70546C36.8421 8.74302 36.8421 8.78058 36.8797 8.81814C36.9173 8.8557 36.9173 8.89326 36.9548 8.93083C36.9548 8.93083 36.9548 8.96839 36.9924 8.96839C37.0675 9.08107 37.1801 9.23132 37.2553 9.38157C37.2928 9.45669 37.3679 9.56938 37.4055 9.6445C37.443 9.68206 37.443 9.71962 37.4806 9.75718C37.5181 9.83231 37.5557 9.86987 37.5933 9.94499C37.6308 10.0201 37.6684 10.0952 37.7435 10.1704C37.8186 10.283 37.8937 10.4333 37.9688 10.546C38.0064 10.6211 38.0439 10.6962 38.0815 10.7338C38.119 10.7714 38.119 10.8089 38.1566 10.884C38.1566 10.9216 38.1941 10.9216 38.1941 10.9592C38.2317 10.9967 38.2317 11.0343 38.2693 11.0718C38.2693 11.1094 38.3068 11.1094 38.3068 11.147C38.3444 11.2221 38.3819 11.2972 38.4195 11.3348C38.457 11.4099 38.4946 11.4475 38.4946 11.5226C38.5321 11.5601 38.5322 11.5977 38.5322 11.6353C38.5322 11.6728 38.5697 11.6728 38.5697 11.7104C38.5697 11.748 38.5697 11.748 38.6073 11.7855C38.6448 11.8231 38.6448 11.8982 38.6824 11.9358C38.6824 11.9733 38.7199 12.0109 38.7199 12.0485C38.7199 12.086 38.7575 12.1236 38.7575 12.1611C38.795 12.2363 38.795 12.2738 38.8326 12.3489C38.9453 12.5743 39.0204 12.7997 39.0955 13.0251C39.133 13.1002 39.133 13.1753 39.1706 13.2504C39.2457 13.5134 39.3208 13.7387 39.3959 13.9641Z" fill="white"/>
<path d="M28.4673 1.75654C22.7964 2.7707 18.8906 3.82243 16.2241 4.76148C15.8861 4.8366 15.5481 4.94929 15.2101 5.06197C14.9472 5.1371 14.7219 5.24978 14.459 5.3249C10.403 6.86494 7.32338 9.90744 5.63338 13.6261C5.03248 14.9032 4.61937 16.2554 4.39404 17.6452C4.35648 17.9081 4.31892 18.171 4.28137 18.4715C3.71803 12.1987 5.22026 7.80398 6.76005 5.06197C7.02294 4.8366 7.32338 4.57367 7.58627 4.3483C8.18717 3.86 8.82561 3.40926 9.50162 2.99608C10.6283 2.31996 11.8301 1.71898 13.0694 1.26823C13.3323 1.15555 13.6327 1.08043 13.9332 0.967741C18.9657 -0.609853 24.0732 -0.196673 28.4673 1.75654Z" fill="white"/>
<path d="M5.18269 25.5707C5.22025 25.7585 5.29536 25.9087 5.33291 26.059C5.33291 26.0965 5.37047 26.1341 5.37047 26.1717C5.40803 26.2468 5.44558 26.3595 5.48314 26.4346C5.48314 26.4722 5.52069 26.5097 5.52069 26.5473C5.55825 26.6224 5.59581 26.6975 5.63336 26.7727C5.67092 26.8102 5.67092 26.8478 5.70847 26.9229C5.74603 26.998 5.78358 27.0731 5.82114 27.1483C5.8587 27.1858 5.8587 27.2234 5.89625 27.261C5.93381 27.3736 6.00892 27.4863 6.04647 27.599C6.08403 27.6741 6.12159 27.7117 6.15914 27.7868C6.1967 27.8619 6.23425 27.8995 6.27181 27.9746C6.30936 28.0498 6.34692 28.1249 6.42203 28.2376C6.45959 28.2751 6.45959 28.3127 6.49714 28.3502C7.09803 29.402 7.84915 30.341 8.63782 31.2049C9.1636 31.8059 9.72694 32.4069 10.4029 32.9703C10.6658 33.1957 10.9663 33.4211 11.2292 33.684C7.62381 31.4679 3.00446 27.9746 0.300446 24.0682C0.300446 24.0682 0.300446 24.0682 0.300446 24.0306C0.26289 23.918 0.26289 23.8053 0.225334 23.6926C0.225334 23.6175 0.187779 23.5048 0.187779 23.4297C0.150223 23.317 0.150223 23.1667 0.150223 23.054C0.150223 22.9789 0.112667 22.9038 0.112667 22.8287C0.112667 22.6784 0.0751115 22.5657 0.0751115 22.4155C0.0751115 22.3404 0.0751115 22.3028 0.0751115 22.2277C0.0751115 22.0774 0.0375557 21.9272 0.0375557 21.7394V21.7018V21.6643C0.0375557 21.4764 0 21.2886 0 21.1008C0 21.0633 0 20.9881 0 20.9506C0 20.7628 0 20.6125 0 20.4247C0 20.3496 0 20.312 0 20.2369C0 20.0867 0 19.9364 0 19.7862C0 19.711 0 19.6359 0 19.5608C0 19.4105 2.79812e-09 19.2603 0.0375557 19.1101C0.0375557 19.0349 0.0375557 18.9598 0.0375557 18.8471C0.0375557 18.6969 0.0751115 18.5842 0.0751115 18.4339C0.0751115 18.3588 0.0751115 18.2461 0.112667 18.171C0.112667 18.0208 0.150223 17.9081 0.150223 17.7578C0.150223 17.6827 0.187779 17.57 0.187779 17.4949C0.225334 17.3447 0.225334 17.1944 0.26289 17.0817C0.26289 17.0066 0.300446 16.9315 0.300446 16.8564C0.338002 16.631 0.375557 16.4056 0.413113 16.2178C0.450669 15.9549 0.52578 15.6544 0.600892 15.3914C0.600892 15.3163 0.638448 15.2412 0.638448 15.2036C0.676003 15.0158 0.751115 14.7905 0.78867 14.6026C0.826226 14.49 0.863782 14.3773 0.901338 14.2646C0.938893 14.1143 0.976449 13.9641 1.05156 13.8514C1.08912 13.7012 1.16423 13.5509 1.20178 13.4007C1.23934 13.3255 1.2769 13.2129 1.31445 13.1377V13.1002C1.35201 12.9875 1.42712 12.8372 1.46467 12.7246C1.50223 12.6494 1.50223 12.6119 1.53979 12.5368C1.57734 12.4616 1.6149 12.3865 1.65245 12.2738C1.72756 12.1236 1.80268 11.9358 1.87779 11.7855C1.91534 11.6728 1.9529 11.5977 2.02801 11.485C2.10312 11.3723 2.14068 11.2597 2.21579 11.1094C2.40357 10.6962 2.6289 10.3206 2.85424 9.94499C3.07957 9.56937 3.30491 9.23132 3.53024 8.8557C3.5678 8.81814 3.60535 8.74301 3.64291 8.70545C3.86824 8.3674 4.13113 8.02934 4.39402 7.72885C4.46913 7.65372 4.54424 7.54104 4.5818 7.46591C4.61936 7.42835 4.65691 7.39079 4.69447 7.35323C4.84469 7.16542 5.03247 6.97761 5.18269 6.7898C5.55825 6.37662 5.97136 5.96344 6.38448 5.55026C6.5347 5.40002 6.68492 5.28733 6.83514 5.13708C5.29536 7.87909 3.79313 12.3114 4.35647 18.5466C4.2438 19.4106 4.2438 20.2745 4.28135 21.1384V21.176C4.28135 21.2135 4.28135 21.2511 4.28135 21.3262C4.28135 21.4764 4.31891 21.6267 4.31891 21.7769C4.35647 21.9272 4.35647 22.115 4.39402 22.2652C4.39402 22.3404 4.43158 22.3779 4.43158 22.4531C4.46913 22.5657 4.46913 22.6784 4.50669 22.7911C4.50669 22.8662 4.54424 22.9038 4.54424 22.9789C4.5818 23.1292 4.61936 23.2794 4.65691 23.4297C4.65691 23.5048 4.69447 23.5799 4.69447 23.6175C4.73202 23.7302 4.73202 23.8053 4.76958 23.918C4.76958 23.9931 4.80713 24.0682 4.80713 24.1058C4.84469 24.256 4.88225 24.4063 4.9198 24.5565C4.9198 24.5941 4.95736 24.6692 4.95736 24.7068C4.99491 24.8194 5.03247 24.9321 5.07002 25.0448C5.07002 25.0824 5.10758 25.1575 5.10758 25.1951C5.10758 25.2702 5.14514 25.4204 5.18269 25.5707Z" fill="white"/>
<path d="M21.4067 37.4778C20.6932 37.8158 20.0172 38.1163 19.3787 38.3417C18.5525 38.6797 17.7638 38.9427 17.0503 39.168C16.4869 39.3558 15.9987 39.5061 15.5856 39.6188C15.3603 39.6939 15.1349 39.7315 14.9472 39.8066C14.9096 39.8066 14.872 39.8066 14.872 39.769H14.8345C14.7969 39.769 14.7594 39.7315 14.7218 39.7315C14.4589 39.6563 14.196 39.5812 13.9331 39.5061C12.7314 39.1305 11.6047 38.6046 10.478 38.0412C7.36089 36.3509 4.69444 33.8718 2.81665 30.7166C2.06553 29.402 1.42709 28.0122 0.938863 26.5097C0.863751 26.2844 0.826195 26.0965 0.751084 25.8712C0.713528 25.8336 0.675972 25.7585 0.675972 25.6834C0.638417 25.5331 0.600861 25.4204 0.563305 25.2702C0.525749 25.1951 0.525749 25.0824 0.488194 25.0073C0.450638 24.8946 0.413082 24.7819 0.413082 24.6692C0.375527 24.5565 0.375527 24.4438 0.337971 24.3687C0.337971 24.2936 0.300415 24.1809 0.300415 24.1058C3.00443 28.0122 7.62378 31.5054 11.154 33.684C11.2291 33.7216 11.2667 33.7967 11.3418 33.8343C12.6938 34.8484 14.2711 35.7499 16.1865 36.426C16.562 36.5763 16.9752 36.689 17.3883 36.8016C17.8389 36.9143 18.3272 37.027 18.8154 37.1397C19.6416 37.29 20.5054 37.4026 21.4067 37.4778Z" fill="white"/>
<path d="M11.1541 33.6464C7.62384 31.4679 3.00448 27.9746 0.30047 24.0682C0.30047 24.0682 0.30047 24.0682 0.30047 24.0306C0.262915 23.918 0.262915 23.8053 0.225359 23.6926C0.225359 23.6175 0.187803 23.5048 0.187803 23.4296C0.150247 23.317 0.150247 23.1667 0.150247 23.054C0.150247 22.9789 0.112692 22.9038 0.112692 22.8287C0.112692 22.6784 2.4505e-05 22.3028 0.075136 22.4155C4.28138 28.4254 5.40805 29.3644 10.3654 32.9703C10.5907 33.1957 10.8536 33.4211 11.1541 33.6464Z" fill="white"/>
<path opacity="0.5" d="M9.53909 2.99609C8.48753 3.78489 4.50662 7.54107 4.31884 18.4715C3.75551 12.1987 5.25774 7.804 6.79752 5.06199C7.06041 4.83662 7.36086 4.57369 7.62375 4.34832C8.22464 3.86001 8.86309 3.40927 9.53909 2.99609Z" fill="white"/>
<path opacity="0.5" d="M30.1573 2.62046C26.4393 2.39509 18.515 4.23561 16.6372 4.68635C16.3743 4.76148 16.2241 4.79904 16.2241 4.79904C18.8906 3.85999 22.7964 2.80827 28.4673 1.7941C29.0306 2.01947 29.594 2.31996 30.1573 2.62046Z" fill="white"/>
<path opacity="0.5" d="M40.0345 16.3681C40.2223 17.4198 40.3725 18.434 40.41 19.4857C40.41 19.4857 40.41 19.5232 40.41 19.5608C38.2318 13.7763 32.4482 9.34401 30.0447 7.72885C29.8569 7.57861 29.6691 7.46592 29.4813 7.31567C29.7442 7.46592 30.0822 7.65373 30.4578 7.8791C33.0116 9.38157 37.4056 12.3489 39.6589 15.8422C39.8092 16.03 39.9218 16.1802 40.0345 16.3681Z" fill="white"/>
<path d="M34.3259 27.5615C34.2884 27.9371 34.0255 33.3835 31.697 36.9143C31.6595 36.9895 31.6219 37.027 31.5844 37.1021C31.2463 37.3651 30.9459 37.628 30.6079 37.8534C30.4201 38.0036 30.2323 38.1539 30.007 38.2666C29.7066 38.4919 29.4061 38.6797 29.0681 38.9051C33.049 34.6231 34.2508 27.9746 34.3259 27.5615Z" fill="white"/>
<path d="M17.7264 15.2788L15.5106 27.0356C15.4355 27.3737 15.7735 27.6366 16.1115 27.5239L20.8435 25.458C21.1064 25.3453 21.3693 25.4956 21.4444 25.7585L22.6462 31.6181C22.7588 32.0689 23.3973 32.0689 23.5099 31.6181L26.3266 18.5842C26.4017 18.2086 25.9886 17.9081 25.6506 18.1335L21.1815 21.1009C20.9562 21.2511 20.4679 21.5892 20.3928 21.2887L18.5526 15.2412C18.4399 14.7905 17.8015 14.828 17.7264 15.2788Z" fill="white"/>
<path d="M17.5761 14.3773L15.2476 26.5473C15.1725 26.8853 15.5105 27.1483 15.8485 27.0356L20.5806 24.9321C20.8434 24.8195 21.1063 24.9697 21.1814 25.2326L22.3832 31.0923C22.4959 31.543 23.1343 31.543 23.247 31.0923L26.0637 18.0583C26.1388 17.6827 25.7257 17.3822 25.3877 17.6076L20.9186 20.575C20.6932 20.7252 20.3552 20.6125 20.2801 20.3496L18.4399 14.3022C18.2897 13.889 17.6888 13.9265 17.5761 14.3773Z" fill="white"/>
</svg>
